<svg width="24" height="24" viewBox="0 0 24 24" fill="none" xmlns="http://www.w3.org/2000/svg">
<g clip-path="url(#clip0_39_190)">
<path d="M11.1797 0H12.9023V0.0117188L13.6172 0.09375L14.0859 0.164062L14.5664 0.257812L15.0117 0.363281L15.4336 0.480469L15.8789 0.621094L16.207 0.738281L16.5352 0.867188L16.9453 1.04297L17.2031 1.16016L17.4023 1.26562L17.5898 1.35938L17.8945 1.52344L18.0938 1.64062L18.4219 1.83984L18.7031 2.02734L18.9375 2.19141L19.1484 2.34375L19.3008 2.46094L19.4648 2.58984L19.6523 2.74219L19.8047 2.87109L19.9688 3.01172L20.1562 3.1875L20.2734 3.29297L20.4141 3.43359L20.4844 3.49219L20.5664 3.58594L20.7891 3.80859L20.8711 3.90234L21.0117 4.05469L21.1172 4.18359L21.2344 4.3125L21.3633 4.47656L21.5156 4.66406L21.6797 4.88672L21.832 5.09766L22.0195 5.36719L22.3008 5.8125L22.4766 6.11719L22.6289 6.39844L22.793 6.71484L22.9688 7.08984L23.1094 7.41797L23.2617 7.80469L23.4258 8.27344L23.5664 8.74219L23.7188 9.35156L23.8359 9.9375L23.9062 10.4062L23.9766 11.0391L24 11.0508V12.9258H23.9766L23.9297 13.3945L23.8594 13.9219L23.7891 14.3086L23.707 14.707L23.5781 15.2227L23.4375 15.6914L23.2617 16.1953L23.1094 16.582L22.957 16.9336L22.7578 17.3555L22.5703 17.7188L22.418 17.9883L22.2656 18.2461L22.1016 18.5039L21.8906 18.8203L21.8086 18.9375L21.6562 19.1484L21.4922 19.3594L21.3633 19.5234L21.1992 19.7227L21.0469 19.8984L20.918 20.0391L20.8359 20.1328L20.7773 20.2031H20.7539L20.7305 20.25L20.2148 20.7656L20.1211 20.8477L19.957 21L19.8633 21.082L19.7109 21.2109L19.582 21.3164L19.3945 21.4688L19.1719 21.6328L19.0195 21.75L18.6445 22.0078L18.4453 22.1367L18.1992 22.2891L17.9414 22.4414L17.625 22.6172L17.3789 22.7461L17.1094 22.875L16.7461 23.0391L16.3711 23.1914L16.0547 23.3086L15.6328 23.4492L15.3281 23.543L14.8359 23.6719L14.4141 23.7656L13.9688 23.8477L13.4766 23.918L12.7617 24H11.1094V23.9883L10.7227 23.9414L10.1719 23.8711L9.75 23.8008L9.21094 23.6836L8.75391 23.5664L8.40234 23.4609L7.98047 23.3203L7.62891 23.1914L7.23047 23.0273L6.84375 22.8516L6.64453 22.7578L6.42188 22.6406L6.11719 22.4766L5.83594 22.3125L5.56641 22.1484L5.39062 22.0312L5.09766 21.832L4.88672 21.6797L4.58203 21.4453L4.39453 21.293L4.26562 21.1875L4.08984 21.0352L3.94922 20.9062L3.64453 20.625L3.29297 20.2734L3.21094 20.1797L3.11719 20.0859L3.03516 19.9922L2.91797 19.8633L2.8125 19.7344L2.67188 19.5703L2.42578 19.2539L2.25 19.0195L2.10938 18.8203L1.89844 18.5039L1.75781 18.2812L1.61719 18.0469L1.47656 17.8008L1.30078 17.4727L1.125 17.1211L0.9375 16.6992L0.785156 16.3242L0.632812 15.9023L0.515625 15.5508L0.410156 15.1875L0.269531 14.6133L0.175781 14.1445L0.0820312 13.5234L0.0117188 12.8789H0V11.1562L0.0117188 11.1328L0.0820312 10.4648L0.164062 9.92578L0.257812 9.44531L0.363281 9L0.457031 8.64844L0.585938 8.23828L0.726562 7.82812L0.902344 7.38281L1.06641 7.00781L1.21875 6.67969L1.33594 6.45703L1.52344 6.10547L1.67578 5.84766L1.85156 5.56641L2.00391 5.33203L2.13281 5.14453L2.27344 4.94531L2.37891 4.80469L2.53125 4.60547L2.68359 4.41797L2.78906 4.28906L2.92969 4.125L3.24609 3.77344L3.32812 3.69141L3.41016 3.59766L3.59766 3.41016H3.62109L3.64453 3.36328L3.73828 3.28125L3.86719 3.15234L3.96094 3.07031L4.10156 2.94141L4.23047 2.83594L4.39453 2.69531L4.57031 2.55469L4.76953 2.40234L4.95703 2.26172L5.15625 2.12109L5.34375 1.99219L5.54297 1.86328L5.76562 1.72266L5.96484 1.60547L6.23438 1.45312L6.5625 1.27734L6.84375 1.13672L7.20703 0.972656L7.66406 0.785156L8.08594 0.632812L8.51953 0.492188L8.89453 0.386719L9.32812 0.28125L9.84375 0.175781L10.3711 0.09375L10.9688 0.0234375L11.1797 0ZM12.7148 1.53516L12.7031 2.08594V6.32812H12.9258L13.6992 6.28125L14.3438 6.22266L14.9883 6.14062L15.5977 6.04688L16.0195 5.96484L16.0078 5.88281L15.8438 5.42578L15.668 4.99219L15.4805 4.57031L15.375 4.34766L15.2578 4.125L15.1055 3.84375L14.9297 3.55078L14.6953 3.19922L14.5781 3.03516L14.4609 2.88281L14.332 2.73047L14.2266 2.60156L14.0391 2.40234L13.9336 2.29688L13.8398 2.21484L13.6758 2.07422L13.4531 1.91016L13.2539 1.78125L12.9727 1.62891L12.7383 1.53516H12.7148ZM11.2617 1.53516L10.9805 1.65234L10.7578 1.76953L10.5117 1.93359L10.3594 2.05078L10.2305 2.15625L10.0781 2.29688L10.0078 2.35547L9.92578 2.44922L9.79688 2.57812V2.60156H9.77344L9.66797 2.73047L9.52734 2.89453L9.36328 3.11719L9.28125 3.23438L9.09375 3.51562L8.94141 3.76172L8.76562 4.07812L8.67188 4.25391L8.54297 4.52344L8.37891 4.875L8.23828 5.21484L8.08594 5.61328L7.98047 5.91797V5.96484L8.35547 6.03516L8.92969 6.12891L9.45703 6.19922L10.0195 6.25781L10.8164 6.31641L11.2852 6.33984V1.53516H11.2617ZM8.35547 2.05078L8.03906 2.16797L7.62891 2.34375L7.32422 2.48438L7.10156 2.60156L6.77344 2.77734L6.57422 2.89453L6.29297 3.07031L6.08203 3.21094L5.89453 3.33984L5.67188 3.50391L5.36719 3.73828L5.20312 3.87891L5.07422 3.98438L4.93359 4.11328L4.83984 4.19531L4.65234 4.37109L4.30078 4.72266L4.32422 4.76953L4.59375 4.89844L4.93359 5.05078L5.33203 5.21484L5.77734 5.37891L6.28125 5.54297L6.55078 5.625L6.59766 5.61328L6.71484 5.26172L6.86719 4.85156L7.00781 4.5L7.16016 4.14844L7.30078 3.84375L7.39453 3.65625L7.53516 3.38672L7.6875 3.11719L7.88672 2.77734L8.07422 2.49609L8.17969 2.34375L8.33203 2.13281L8.37891 2.07422V2.05078H8.35547ZM15.6445 2.0625L15.6328 2.08594L15.7266 2.21484L15.8789 2.42578L16.1016 2.76562L16.2773 3.05859L16.4297 3.32812L16.5703 3.59766L16.6641 3.78516L16.8398 4.14844L17.0625 4.67578L17.25 5.16797L17.4023 5.61328L17.4492 5.625L18.1523 5.40234L18.6328 5.22656L18.9727 5.08594L19.2422 4.96875L19.5938 4.80469L19.6875 4.75781L19.6758 4.71094L19.5938 4.61719L19.1953 4.21875L19.1016 4.13672L18.9844 4.03125L18.8906 3.94922L18.7383 3.82031L18.5742 3.69141L18.457 3.59766L18.2695 3.45703L18.0586 3.30469L17.7773 3.11719L17.5781 2.98828L17.4023 2.88281L17.1562 2.74219L16.8984 2.60156L16.4766 2.39062L16.1836 2.26172L15.8672 2.13281L15.7031 2.07422L15.6445 2.0625ZM3.36328 5.87109L3.23438 6.04688L3.11719 6.22266L2.94141 6.50391L2.77734 6.78516L2.625 7.05469L2.40234 7.5L2.22656 7.89844L2.0625 8.32031L1.875 8.87109L1.73438 9.375L1.61719 9.89062L1.53516 10.3477L1.48828 10.6875L1.44141 11.1445L1.42969 11.2852L5.57812 11.2969L5.64844 11.2852L5.66016 11.2031L5.69531 10.5L5.73047 10.0078L5.78906 9.43359L5.87109 8.77734L5.97656 8.12109L6.07031 7.62891L6.1875 7.07812L6.19922 6.99609L6.08203 6.94922L5.625 6.80859L5.07422 6.62109L4.83984 6.52734L4.51172 6.39844L4.16016 6.24609L3.83203 6.09375L3.43359 5.89453L3.39844 5.87109H3.36328ZM20.625 5.87109L20.3555 6L20.168 6.09375L19.793 6.26953L19.4062 6.43359L18.9492 6.60938L18.5508 6.75L18.082 6.90234L17.8125 6.98438L17.8008 7.03125L17.9414 7.69922L18.0352 8.20312L18.1289 8.8125L18.2109 9.46875L18.2695 10.0898L18.3047 10.5703L18.3398 11.2852L22.5234 11.2969L22.5586 11.2852V11.168L22.5 10.6289L22.4414 10.2188L22.3477 9.73828L22.2656 9.38672L22.1484 8.95312L21.9961 8.48438L21.832 8.05078L21.7031 7.74609L21.5625 7.44141L21.4336 7.17188L21.293 6.91406L21.1289 6.62109L20.9648 6.35156L20.7539 6.03516L20.6367 5.87109H20.625ZM7.58203 7.33594L7.53516 7.5L7.40625 8.12109L7.30078 8.74219L7.21875 9.31641L7.16016 9.84375L7.11328 10.3945L7.06641 11.2383V11.2852L7.10156 11.2969H11.2734L11.2852 11.2852V7.75781L11.2148 7.74609L10.3711 7.69922L9.69141 7.64062L9.08203 7.57031L8.35547 7.46484L7.75781 7.35938L7.64062 7.33594H7.58203ZM16.3594 7.33594L15.5508 7.47656L14.9062 7.57031L14.2734 7.64062L13.7461 7.6875L12.7734 7.74609L12.7148 7.75781L12.7031 8.47266V11.2852L12.7734 11.2969H16.8984L16.9219 11.2852V11.0859L16.8867 10.4531L16.8398 9.87891L16.7695 9.24609L16.6758 8.60156L16.582 8.08594L16.4648 7.51172L16.4297 7.33594H16.3594ZM1.44141 12.7031L1.42969 12.7266L1.47656 13.207L1.52344 13.582L1.60547 14.0625L1.71094 14.5312L1.80469 14.8945L1.94531 15.3516L2.10938 15.8086L2.27344 16.207L2.46094 16.6172L2.60156 16.8984L2.74219 17.1562L2.90625 17.4375L3.08203 17.7188L3.19922 17.8945L3.35156 18.1172L3.38672 18.1289L3.62109 18L3.89062 17.8711L4.11328 17.7656L4.46484 17.6133L4.81641 17.4727L5.15625 17.3438L5.74219 17.1445L6.17578 17.0156L6.19922 17.0039L6.17578 16.8633L6.05859 16.3125L5.95312 15.7383L5.85938 15.1289L5.77734 14.4609L5.71875 13.8281L5.67188 13.0781L5.66016 12.7969L5.64844 12.7031H1.44141ZM7.07812 12.7031V13.0195L7.125 13.7695L7.18359 14.3906L7.26562 15.0352L7.37109 15.6797L7.46484 16.1719L7.57031 16.6523L7.61719 16.6641L8.39062 16.5234L9.02344 16.4297L9.63281 16.3594L10.1367 16.3125L10.6758 16.2773L11.1914 16.2539L11.2852 16.2422V12.7031H7.07812ZM12.7148 12.7031L12.7031 13.1602V16.2422L12.8203 16.2539L13.3242 16.2773L13.9805 16.3242L14.5781 16.3828L15.2227 16.4648L15.75 16.5469L16.3242 16.6523L16.418 16.6641L16.4883 16.3828L16.6055 15.7969L16.7227 15.0938L16.7812 14.6367L16.8398 14.0977L16.875 13.6875L16.9102 13.1719L16.9219 12.8906V12.7031H12.7148ZM18.3516 12.7031L18.3398 12.7734L18.293 13.6289L18.2461 14.2031L18.1641 14.9414L18.0586 15.6562L17.9648 16.1836L17.8359 16.8047L17.8008 16.957V17.0039L18.4688 17.2148L18.9023 17.3672L19.3594 17.543L19.6641 17.6719L19.9805 17.8125L20.3672 18L20.6016 18.1172L20.6484 18.1055L20.7188 18.0117L20.8242 17.8594L20.9883 17.6016L21.1406 17.3555L21.3047 17.0625L21.4219 16.8516L21.5508 16.582L21.7148 16.2305L21.8906 15.7969L22.0195 15.4453L22.1602 15L22.2891 14.5195L22.3945 14.0391L22.4766 13.5586L22.5352 13.0781L22.5586 12.8203V12.7148L22.4883 12.7031H18.3516ZM12.7148 17.6602L12.7031 18.1758V22.4648L12.8203 22.4297L13.1016 22.3008L13.3242 22.1719L13.5117 22.043L13.6758 21.9141L13.8281 21.7852L13.9805 21.6445L14.1797 21.4453L14.2617 21.3516L14.4023 21.1875L14.5547 20.9883L14.6953 20.8008L14.8828 20.5195L14.9766 20.3672L15.1172 20.1328L15.2812 19.8281L15.4688 19.4531L15.6445 19.0664L15.7734 18.75L15.9023 18.4102L16.0195 18.0703V18.0352L15.8789 18L15.3516 17.9062L14.6016 17.8008L13.9102 17.7305L13.4531 17.6953L12.7969 17.6602H12.7148ZM11.1445 17.6602L10.3477 17.707L9.69141 17.7656L9.11719 17.8359L8.56641 17.918L8.05078 18.0117L7.96875 18.0352L8.09766 18.4219L8.26172 18.8438L8.4375 19.2539L8.57812 19.5586L8.67188 19.7461L8.8125 20.0156L8.97656 20.2969L9.15234 20.5781L9.24609 20.7188L9.38672 20.918L9.55078 21.1289L9.67969 21.2812L9.78516 21.3984L9.86719 21.4922L10.1484 21.7734L10.2773 21.8789L10.418 21.9961L10.6172 22.1367L10.8984 22.3008L11.0977 22.3945L11.2617 22.4648H11.2852V17.6602H11.1445ZM17.4023 18.375L17.2617 18.7969L17.0625 19.3242L16.8867 19.7344L16.6289 20.2969L16.5117 20.5195L16.3477 20.8242L16.1016 21.2344L15.9141 21.5156L15.8086 21.668L15.6211 21.9258L15.6328 21.9492L15.9727 21.8203L16.3008 21.6797L16.6523 21.5156L16.9805 21.3516L17.25 21.1992L17.5664 21.0117L17.8594 20.8242L18.0117 20.7188L18.2109 20.5781L18.3984 20.4375L18.6094 20.2734L18.8086 20.1094L18.9258 20.0039L19.0547 19.8984L19.1484 19.8047L19.2422 19.7227L19.3242 19.6406L19.418 19.5586L19.5586 19.418L19.6406 19.3242L19.6992 19.2656V19.2422L19.418 19.1016L19.0547 18.9375L18.7383 18.8086L18.3984 18.6797L18.0703 18.5625L17.6602 18.4336L17.4609 18.375H17.4023ZM6.53906 18.375L6.07031 18.5156L5.56641 18.6914L5.26172 18.8086L4.89844 18.9609L4.51172 19.1367L4.30078 19.2422L4.33594 19.3008L4.44141 19.418L4.71094 19.6875L4.80469 19.7695L4.85156 19.8164H4.875L4.88672 19.8516L4.98047 19.9336L5.14453 20.0742L5.29688 20.2031L5.47266 20.3438L5.625 20.4609L5.84766 20.625L6.11719 20.8125L6.31641 20.9414L6.64453 21.1406L6.91406 21.293L7.18359 21.4336L7.38281 21.5391L7.74609 21.7031L8.05078 21.832L8.27344 21.9141L8.37891 21.9492L8.34375 21.8789L8.17969 21.6562L7.94531 21.3047L7.79297 21.0586L7.54688 20.6367L7.45312 20.4492L7.35938 20.2734L7.23047 20.0039L7.07812 19.6641L6.9375 19.3242L6.78516 18.9258L6.64453 18.5273L6.59766 18.375H6.53906Z" fill="#707A8A"/>
</g>
<defs>
<clipPath id="clip0_39_190">
<rect width="24" height="24" fill="white"/>
</clipPath>
</defs>
</svg>
