<svg width="24" height="24" viewBox="0 0 24 24" fill="none" xmlns="http://www.w3.org/2000/svg">
<g clip-path="url(#clip0_39_196)">
<path d="M11.25 0H12.8438V0.0117188L13.5 0.0820312L13.9805 0.152344L14.4258 0.234375L14.9414 0.351562L15.4102 0.480469L15.7148 0.574219L16.1836 0.738281L16.5703 0.890625L16.8633 1.01953L17.25 1.19531L17.4258 1.28906L17.6133 1.38281L17.8125 1.48828L18.0938 1.65234L18.3281 1.79297L18.5625 1.94531L18.7383 2.0625L19.1367 2.34375L19.3477 2.50781L19.5117 2.63672L19.6406 2.74219L19.8047 2.88281L19.9336 2.98828L20.1211 3.16406L20.2383 3.26953L20.3672 3.39844L20.4609 3.48047L20.6484 3.67969L20.7773 3.80859L20.8594 3.90234L21 4.05469L21.082 4.14844L21.2227 4.3125L21.375 4.5L21.6094 4.80469L21.7734 5.02734L21.9258 5.25L22.1133 5.53125L22.1953 5.66016L22.2891 5.8125L22.4648 6.11719L22.5703 6.30469L22.7461 6.64453L22.875 6.90234L23.0625 7.32422L23.2031 7.67578L23.3086 7.95703L23.4492 8.37891L23.543 8.68359L23.6602 9.11719L23.7773 9.64453L23.8594 10.1016L23.9414 10.7227L23.9766 11.0742H24V12.8789L23.9766 12.9023L23.9297 13.3711L23.8594 13.9102L23.7656 14.4258L23.6133 15.0703L23.4609 15.5977L23.2852 16.1133L23.1562 16.4414L23.0391 16.7227L22.8398 17.168L22.6406 17.5664L22.5 17.8242L22.3359 18.1055L22.1953 18.3398L22.0078 18.6328L21.8555 18.8555L21.7617 18.9844L21.6094 19.1953L21.4453 19.4062L21.293 19.5938L21.1992 19.7109L21.0703 19.8516L20.9648 19.9805L20.8242 20.1328L20.7656 20.2031H20.7422L20.7188 20.25L20.2383 20.7305L20.1445 20.8125L20.0508 20.9062L19.957 20.9883L19.6289 21.2695L19.4531 21.4102L19.1016 21.6797L18.8789 21.832L18.7148 21.9492L18.4453 22.125L18.2227 22.2656L17.9414 22.4297L17.6719 22.582L17.4727 22.6875L17.2852 22.7812L16.8867 22.9688L16.5 23.1328L16.0664 23.2969L15.5859 23.4609L15.0469 23.6133L14.5078 23.7422L14.0156 23.8359L13.5469 23.9062L12.9375 23.9766L12.7266 24H11.1562V23.9883L10.3594 23.8945L9.91406 23.8242L9.49219 23.7422L8.98828 23.625L8.41406 23.4609L7.82812 23.2617L7.35938 23.0742L6.91406 22.875L6.62109 22.7344L6.25781 22.5469L5.97656 22.3828L5.66016 22.1953L5.42578 22.043L5.25 21.9258L5.05078 21.7852L4.83984 21.6328L4.67578 21.5039L4.46484 21.3398L4.33594 21.2344L4.16016 21.082L3.99609 20.9414L3.85547 20.8125L3.72656 20.6836L3.63281 20.6016L3.30469 20.2734V20.25H3.28125L3.19922 20.1562L3.09375 20.0508L2.98828 19.9219L2.85938 19.7812L2.75391 19.6523L2.625 19.5L2.48438 19.3125L2.32031 19.1016L2.17969 18.9023L2.01562 18.668L1.88672 18.4688L1.72266 18.2109L1.54688 17.9062L1.38281 17.6133L1.17188 17.1914L1.04297 16.9219L0.878906 16.5352L0.714844 16.1133L0.527344 15.5625L0.363281 14.9883L0.234375 14.4258L0.140625 13.8984L0.0820312 13.4883L0.0351562 13.0781L0.0117188 12.8086L0 12.7969V11.2266L0.0234375 11.0625L0.0703125 10.6055L0.128906 10.1602L0.234375 9.57422L0.363281 9.01172L0.527344 8.4375L0.703125 7.91016L0.855469 7.52344L0.996094 7.18359L1.16016 6.83203L1.42969 6.29297L1.75781 5.73047L1.92188 5.47266L2.08594 5.22656L2.32031 4.89844L2.42578 4.75781L2.55469 4.59375L2.71875 4.38281L2.85938 4.21875L2.96484 4.10156L3.07031 3.97266L3.17578 3.86719L3.25781 3.77344L3.36328 3.66797L3.44531 3.57422L3.65625 3.36328H3.67969V3.33984L3.77344 3.25781L3.86719 3.16406L3.96094 3.08203L4.10156 2.95312L4.23047 2.84766L4.34766 2.74219L4.54688 2.58984L4.6875 2.47266L4.91016 2.30859L5.10938 2.16797L5.32031 2.01562L5.53125 1.88672L5.64844 1.80469L5.88281 1.66406L6.1875 1.48828L6.46875 1.33594L6.91406 1.11328L7.33594 0.925781L7.83984 0.726562L8.42578 0.527344L8.91797 0.386719L9.29297 0.292969L9.73828 0.199219L10.3125 0.105469L10.7812 0.046875L11.25 0ZM11.6719 1.57031L11.2266 1.59375L10.7344 1.64062L10.3125 1.69922L9.86719 1.78125L9.375 1.89844L8.88281 2.03906L8.40234 2.20312L8.01562 2.35547L7.69922 2.49609L7.46484 2.60156L7.24219 2.71875L6.94922 2.87109L6.66797 3.03516L6.49219 3.14062L6.25781 3.29297L6.03516 3.44531L5.82422 3.59766L5.625 3.75L5.41406 3.91406L5.08594 4.19531L4.91016 4.35938L4.875 4.38281V4.40625L4.82812 4.42969L4.41797 4.83984L4.33594 4.93359L4.17188 5.10938L4.06641 5.23828L3.94922 5.36719L3.86719 5.47266L3.75 5.625L3.60938 5.8125L3.45703 6.02344L3.375 6.14062L3.25781 6.31641L3.12891 6.51562L3.04688 6.64453L2.97656 6.77344L2.85938 6.97266L2.78906 7.11328L2.67188 7.33594L2.53125 7.61719L2.36719 7.99219L2.20312 8.41406L2.02734 8.92969L1.88672 9.43359L1.78125 9.89062L1.6875 10.418L1.62891 10.8633L1.59375 11.2383L1.58203 11.4375L1.57031 11.8008V12.2461L1.59375 12.7617L1.64062 13.2539L1.69922 13.6641L1.76953 14.0508L1.93359 14.7305L2.03906 15.0938L2.25 15.7031L2.34375 15.9375L2.49609 16.2773L2.68359 16.6875L2.78906 16.8867L2.95312 17.168L3.07031 17.3789L3.21094 17.6133L3.32812 17.7773L3.45703 17.9648L3.62109 18.1992L3.75 18.375L3.89062 18.5391L4.01953 18.6914L4.125 18.8203L4.23047 18.9375L4.28906 19.0195L4.32422 19.0312L4.39453 18.9258L4.52344 18.6914L4.66406 18.4453L4.76953 18.2812L4.91016 18.082L5.03906 17.8945L5.12109 17.7773L5.23828 17.625L5.34375 17.5078L5.47266 17.3438L5.57812 17.2266L5.68359 17.0977L6.09375 16.6875L6.11719 16.6758V16.6523H6.14062V16.6289L6.1875 16.6055L6.33984 16.4648L6.50391 16.3359L6.67969 16.1836L6.87891 16.0312L7.13672 15.8555L7.52344 15.5977L8.17969 15.2344L8.49609 15.0938L8.84766 14.9414L8.82422 14.8945L8.625 14.7305L8.42578 14.5781L8.27344 14.4375L7.89844 14.0625L7.76953 13.8984L7.61719 13.7109L7.48828 13.5352L7.34766 13.3125L7.20703 13.0781L7.08984 12.8555L6.91406 12.4688L6.77344 12.0586L6.67969 11.7305L6.58594 11.2383L6.55078 10.957L6.52734 10.6055V10.2188L6.55078 9.87891L6.60938 9.46875L6.66797 9.1875L6.76172 8.83594L6.85547 8.55469L6.97266 8.26172L7.08984 8.00391L7.20703 7.78125L7.34766 7.54688L7.48828 7.32422L7.61719 7.16016L7.71094 7.03125L7.80469 6.91406L7.92188 6.78516L8.00391 6.69141L8.16797 6.51562L8.26172 6.43359L8.4375 6.26953L8.60156 6.14062L8.80078 5.98828L9 5.84766L9.31641 5.66016L9.43359 5.58984L9.70312 5.46094L9.9375 5.35547L10.3594 5.20312L10.8047 5.08594L11.1328 5.02734L11.4844 4.98047L11.9531 4.95703L12.3398 4.96875L12.7031 5.00391L13.0781 5.0625L13.3828 5.13281L13.7344 5.23828L14.0859 5.36719L14.3438 5.48438L14.5312 5.57812L14.7656 5.70703L14.918 5.80078L15.0469 5.88281L15.2109 6L15.3633 6.11719L15.5273 6.24609L15.6797 6.38672L15.7734 6.46875L15.8672 6.5625H15.8906L15.9141 6.60938L16.0195 6.71484L16.1016 6.80859L16.207 6.92578L16.3242 7.07812L16.4883 7.30078L16.6055 7.47656L16.7812 7.76953L16.9219 8.03906L17.0508 8.32031L17.168 8.63672L17.25 8.88281L17.3672 9.35156L17.4375 9.80859L17.4609 10.0781L17.4727 10.3125V10.5L17.4492 10.9219L17.4141 11.2383L17.3203 11.7305L17.2266 12.0469L17.0977 12.4336L16.9102 12.8438L16.8164 13.043L16.6523 13.3125L16.5117 13.5352L16.3711 13.7227L16.2305 13.8984L16.1016 14.0625L16.0312 14.1328V14.1562L15.9844 14.1797V14.2031L15.9375 14.2266V14.25L15.8906 14.2734V14.2969L15.8438 14.3203V14.3438L15.7969 14.3672L15.6211 14.543L15.5039 14.6367L15.3516 14.7539L15.2344 14.8477L15.1406 14.918L15.1523 14.9414L15.5039 15.0938L15.6797 15.1758L15.9258 15.293L16.4531 15.5859L16.6523 15.7148L17.0156 15.9609L17.1797 16.0781L17.5664 16.3945L17.7188 16.5234L17.8359 16.6289L17.9766 16.7695H18L18.0234 16.8164H18.0469L18.0586 16.8516L18.1289 16.9102L18.3164 17.0977L18.3984 17.1914L18.5273 17.3438L18.6328 17.4727L18.7734 17.6367L18.9375 17.8594L19.125 18.1289L19.2539 18.3164L19.3477 18.4688L19.5117 18.7617L19.6406 18.9844L19.6641 19.0195L19.7109 19.0078L19.8047 18.9023L19.9102 18.7734L20.0625 18.5977L20.168 18.4688L20.2969 18.3164L20.4258 18.1289L20.5664 17.9297L20.6719 17.7773L20.8242 17.5547L21.1523 16.9805L21.2812 16.7578L21.3867 16.5234L21.4688 16.3477L21.6094 16.043L21.7031 15.8203L21.8203 15.4922L21.9844 15.0117L22.0781 14.6602L22.2422 13.9805L22.3125 13.5586L22.3594 13.2188L22.3945 12.8672L22.418 12.4805V11.5195L22.3828 11.0039L22.3242 10.5117L22.2305 9.96094L22.1367 9.53906L22.0547 9.22266L21.9492 8.85938L21.7852 8.37891L21.6211 7.96875L21.4102 7.5L21.2461 7.17188L21.1055 6.91406L20.9414 6.63281L20.7891 6.38672L20.6016 6.10547L20.3672 5.77734L20.25 5.625L20.0859 5.41406L19.9453 5.25L19.793 5.07422L19.7109 4.98047L19.6641 4.92188H19.6406L19.6172 4.875L19.418 4.67578L19.3945 4.64062H19.3711L19.3477 4.59375L19.2539 4.51172L19.0547 4.3125L18.9609 4.23047L18.7969 4.08984L18.6797 3.98438L18.4805 3.83203L18.3047 3.69141L18.1289 3.5625L17.9297 3.42188L17.5781 3.1875L17.332 3.03516L17.0273 2.85938L16.6875 2.68359L16.5117 2.58984L16.0898 2.40234L15.75 2.26172L15.3281 2.10938L15 2.00391L14.4844 1.86328L14.0625 1.76953L13.5234 1.67578L13.0312 1.61719L12.5859 1.58203L12.2695 1.57031H11.6719ZM11.8477 6.52734L11.5195 6.55078L11.1797 6.60938L10.8984 6.67969L10.6172 6.77344L10.3711 6.87891L10.1836 6.97266L9.97266 7.08984L9.76172 7.23047L9.51562 7.41797L9.23438 7.67578L9.14062 7.76953L9.05859 7.86328L9.04688 7.89844H9.02344L8.90625 8.05078L8.74219 8.27344L8.60156 8.50781L8.46094 8.77734L8.35547 9.02344L8.23828 9.375L8.15625 9.71484L8.10938 10.0547L8.09766 10.2305V10.6523L8.13281 10.9922L8.17969 11.2617L8.25 11.543L8.35547 11.8477L8.46094 12.0938L8.57812 12.3281L8.74219 12.5977L8.90625 12.8203L9 12.9375L9.10547 13.0547L9.23438 13.1953L9.43359 13.3828L9.5625 13.4883L9.79688 13.6641L10.0078 13.793L10.1719 13.8867L10.4531 14.0273L10.6992 14.1211L10.9688 14.2031L11.2852 14.2734L11.6133 14.3203L11.7539 14.332H12.2578L12.5742 14.2969L12.832 14.25L13.1484 14.168L13.4766 14.0508L13.7578 13.9219L13.9922 13.793L14.2148 13.6523L14.4609 13.4648L14.5781 13.3594L14.6719 13.2773L14.8125 13.1484L14.8945 13.0547L14.9062 13.0195H14.9297L15.0352 12.8906L15.1992 12.6797L15.3398 12.457L15.4805 12.2109L15.6211 11.9062L15.7383 11.5781L15.832 11.2031L15.8789 10.9102L15.9023 10.5586V10.3242L15.8789 9.98438L15.832 9.67969L15.7617 9.38672L15.6797 9.11719L15.5742 8.85938L15.4336 8.56641L15.293 8.33203L15.1992 8.19141L15.0586 8.00391L14.9531 7.875L14.8242 7.73438L14.7891 7.6875H14.7656V7.66406H14.7422V7.64062L14.6484 7.55859L14.5312 7.45312L14.3672 7.32422L14.1562 7.17188L13.8398 6.98438L13.5 6.82031L13.1719 6.70312L12.8672 6.62109L12.6914 6.58594L12.457 6.55078L12.1172 6.52734H11.8477ZM11.8945 15.9141L11.4141 15.9375L10.9102 15.9961L10.4766 16.0781L10.0195 16.1953L9.59766 16.3359L9.26953 16.4648L8.88281 16.6406L8.56641 16.8047L8.23828 17.0039L7.99219 17.168L7.78125 17.3203L7.67578 17.4023L7.47656 17.5664L7.34766 17.6719L7.19531 17.8125L7.03125 17.9766L6.9375 18.0586L6.85547 18.1523L6.70312 18.3164L6.62109 18.4102L6.46875 18.5977L6.32812 18.7852L6.1875 18.9844L6.07031 19.1602L5.97656 19.3125L5.80078 19.6172L5.70703 19.8047L5.54297 20.1445V20.1914L5.69531 20.2969L6.14062 20.625L6.30469 20.7305L6.55078 20.8828L6.87891 21.082L7.08984 21.1992L7.65234 21.4805L8.01562 21.6328L8.48438 21.8203L8.8125 21.9258L9.31641 22.0781L9.87891 22.207L10.3125 22.2891L10.8398 22.3594L11.1797 22.3945L11.8594 22.4297H12.082L12.8203 22.3945L13.2539 22.3477L13.8281 22.2656L14.4375 22.1367L14.7188 22.0664L15.2578 21.9023L15.5977 21.7852L16.0898 21.5859L16.3359 21.4805L17.0625 21.1172L17.25 21L17.5781 20.8008L17.7656 20.6836L17.9648 20.543L18.1875 20.3789L18.3984 20.2266L18.457 20.1914L18.4453 20.1211L18.293 19.8047L18.1992 19.6172L18.0352 19.3242L17.8711 19.0664L17.7656 18.9141L17.6484 18.75L17.5195 18.5859L17.3672 18.3984L17.2852 18.3047L17.1445 18.1523L17.0391 18.0352L16.8633 17.8594L16.7695 17.7773L16.6641 17.6719L16.5 17.543L16.3359 17.4023L16.125 17.25L15.8906 17.0859L15.6094 16.9102L15.3633 16.7695L15 16.582L14.5898 16.4062L14.3086 16.3008L13.9336 16.1836L13.4648 16.0664L13.0781 15.9961L12.7969 15.9609L12.3984 15.9258L12.082 15.9141H11.8945Z" fill="#707A8A"/>
</g>
<defs>
<clipPath id="clip0_39_196">
<rect width="24" height="24" fill="white"/>
</clipPath>
</defs>
</svg>
