<svg width="24" height="24" viewBox="0 0 24 24" fill="none" xmlns="http://www.w3.org/2000/svg">
<path d="M2.94141 8.98828L3.12891 9L3.26953 9.03516L3.44531 9.12891L3.53906 9.21094L3.63281 9.32812L3.77344 9.55078L3.86719 9.69141L4.01953 9.91406L4.18359 10.125L4.30078 10.2773L4.51172 10.5352L4.61719 10.6523L4.72266 10.7812L4.89844 10.9688L5.02734 11.1094L5.41406 11.4961L5.50781 11.5781L5.58984 11.6602L5.68359 11.7422L5.84766 11.8828L6.02344 12.0352L6.17578 12.1523L6.38672 12.3164L6.60938 12.4805L7.06641 12.7852L7.27734 12.9141L7.58203 13.0898L7.89844 13.2539L8.08594 13.3477L8.39062 13.4883L8.85938 13.6758L9.19922 13.793L9.59766 13.9102L9.77344 13.957L10.125 14.0391L10.5703 14.1211L11.0156 14.1797L11.6602 14.2266H12.3633L12.8672 14.1914L13.3477 14.1328L13.7695 14.0625L14.1328 13.9805L14.5312 13.875L14.9062 13.7578L15.3164 13.6055L15.6562 13.4648L15.8906 13.3594L16.0781 13.2656L16.418 13.0898L16.6992 12.9258L17.0039 12.7383L17.1797 12.6211L17.4023 12.4688L17.5898 12.3281L17.7891 12.1758L17.9531 12.0469L18.1172 11.9062L18.2461 11.8008L18.3984 11.6602L18.5391 11.5312L18.7148 11.3672L19.0195 11.0625L19.1016 10.9688L19.2891 10.7695L19.3945 10.6406L19.5469 10.4648L19.6992 10.2773L19.8516 10.0781L19.957 9.9375L20.1094 9.72656L20.2617 9.49219L20.3672 9.32812L20.4727 9.19922L20.5898 9.10547L20.7305 9.03516L20.8594 9L21.0469 8.98828L21.2344 9.02344L21.3398 9.07031L21.457 9.14062L21.5625 9.23438L21.668 9.38672L21.7266 9.52734L21.75 9.63281V9.89062L21.6914 10.0664L21.5977 10.2305L21.4453 10.4648L21.3516 10.6055L21.2344 10.7695L21.082 10.9805L20.9414 11.1562L20.8125 11.3203L20.707 11.4492L20.5781 11.6016L20.4727 11.7305L20.3086 11.9062L20.2969 11.9297H20.2734L20.25 11.9766L20.1328 12.0938L20.0508 12.1875L19.6641 12.5742L19.5703 12.6562L19.3711 12.8438L19.2773 12.9258L19.1133 13.0664L18.9609 13.1953L18.8438 13.2891L18.6328 13.4531L18.4102 13.6172L18.2227 13.7578L17.9414 13.9453L17.7422 14.0742L17.4961 14.2266L17.1914 14.4023L16.8867 14.5664L16.6875 14.6719L16.3594 14.8242L15.9492 15L15.5391 15.1523L15.1172 15.293L14.7891 15.3867L14.3203 15.5039L13.8516 15.5977L13.3828 15.668L12.9609 15.7148L12.4219 15.75H11.5781L11.1328 15.7266L10.5938 15.668L10.1484 15.5977L9.67969 15.5039L9.16406 15.375L8.69531 15.2344L8.14453 15.0352L7.69922 14.8477L7.46484 14.7422L7.27734 14.6484L6.89062 14.4492L6.64453 14.3086L6.38672 14.1562L6.12891 13.9922L5.80078 13.7695L5.63672 13.6523L5.41406 13.4883L5.22656 13.3359L5.0625 13.207L4.91016 13.0781L4.78125 12.9727L4.60547 12.8086L4.51172 12.7266L4.39453 12.6211L4.30078 12.5273L4.20703 12.4453L3.94922 12.1875L3.86719 12.0938L3.75 11.9766V11.9531H3.72656L3.62109 11.8242L3.53906 11.7422L3.43359 11.6133L3.33984 11.5078L3.23438 11.3789L3.08203 11.1914L2.92969 10.9922L2.76562 10.7695L2.625 10.5703L2.50781 10.3945L2.37891 10.1953L2.28516 10.0078L2.25 9.89062L2.23828 9.80859V9.70312L2.27344 9.52734L2.33203 9.38672L2.40234 9.28125L2.50781 9.16406L2.625 9.08203L2.78906 9.01172L2.94141 8.98828Z" fill="#2B2F33"/>
<path d="M4.35938 14.25H4.62891L4.76953 14.2852L4.88672 14.3438L5.03906 14.4609L5.13281 14.5781L5.19141 14.6836L5.23828 14.8125L5.25 14.8711V15.1289L5.20312 15.293L5.13281 15.4219L4.99219 15.5859L3.55078 17.0273L3.43359 17.1211L3.24609 17.2148L3.09375 17.25H2.89453L2.70703 17.2031L2.57812 17.1328L2.46094 17.0273L2.36719 16.9219L2.27344 16.7344L2.25 16.6406L2.23828 16.4648L2.26172 16.3125L2.30859 16.1719L2.39062 16.043L2.53125 15.8906L3.99609 14.4258L4.08984 14.3555L4.25391 14.2734L4.35938 14.25Z" fill="#2B2F33"/>
<path d="M19.4766 14.2383L19.6406 14.25L19.793 14.2969L19.9219 14.3672L20.0508 14.4727L21.5391 15.9609L21.6328 16.0781L21.6914 16.1836L21.7383 16.3125L21.75 16.3594V16.6289L21.7031 16.793L21.6328 16.9219L21.5273 17.0391L21.4219 17.1328L21.2461 17.2148L21.0938 17.25H20.8945L20.707 17.2031L20.5781 17.1328L20.4609 17.0273L20.3906 16.9688L20.3086 16.875L18.9023 15.4688L18.8203 15.3398L18.7617 15.1992L18.7383 15.0586V14.9531L18.7734 14.7656L18.832 14.625L18.9492 14.4727L19.0664 14.3672L19.2539 14.2734L19.3594 14.25L19.4766 14.2383Z" fill="#2B2F33"/>
<path d="M16.0781 16.1133L16.2656 16.125L16.418 16.1719L16.5469 16.2422L16.6758 16.3477L16.7812 16.4883L16.8867 16.7227L17.0508 17.1445L17.2031 17.5195L17.4844 18.2227L17.6016 18.5273L17.625 18.6211V18.8789L17.5664 19.0547L17.4961 19.1836L17.3906 19.3008L17.2969 19.3828L17.1211 19.4648L16.9805 19.5H16.7578L16.6172 19.4648L16.4531 19.3828L16.3359 19.2773L16.2422 19.1719L16.1484 18.9844L16.0195 18.668L15.5508 17.4961L15.3984 17.1094L15.3633 16.9336V16.8281L15.3984 16.6406L15.4922 16.4531L15.5742 16.3477L15.6914 16.2422L15.8789 16.1484L15.9727 16.125L16.0781 16.1133Z" fill="#2B2F33"/>
<path d="M7.85156 16.1133L8.01562 16.125L8.16797 16.1719L8.29688 16.2422L8.42578 16.3477L8.53125 16.4883L8.60156 16.6523L8.625 16.7461V17.0039L8.56641 17.1914L8.29688 17.8711L7.92188 18.8086L7.80469 19.0898L7.72266 19.2188L7.66406 19.2773L7.55859 19.3711L7.37109 19.4648L7.23047 19.5H7.00781L6.83203 19.4531L6.70312 19.3828L6.58594 19.2773L6.49219 19.1719L6.41016 19.0078L6.375 18.8906L6.36328 18.8086V18.7031L6.39844 18.5273L6.50391 18.2461L7.04297 16.8984L7.18359 16.5586L7.24219 16.4531L7.33594 16.3359L7.44141 16.2422L7.60547 16.1602L7.74609 16.125L7.85156 16.1133Z" fill="#2B2F33"/>
<path d="M11.9648 16.8633L12.1406 16.875L12.293 16.9219L12.4219 16.9922L12.5391 17.0977L12.6328 17.2031L12.7266 17.3906L12.75 17.5078L12.7617 17.8477V19.0195L12.75 19.6172L12.7148 19.7461L12.668 19.8516L12.5977 19.9688L12.4805 20.0859L12.3516 20.168L12.2109 20.2266L12.0938 20.25H11.8828L11.7422 20.2148L11.6016 20.1445L11.4844 20.0508L11.4023 19.9688L11.3086 19.8164L11.2617 19.6875L11.2383 19.5117V17.5781L11.2734 17.3906L11.3203 17.2852L11.3906 17.168L11.5078 17.0391L11.625 16.957L11.7539 16.8984L11.8594 16.875L11.9648 16.8633Z" fill="#2B2F33"/>
</svg>
