<svg width="24" height="24" viewBox="0 0 24 24" fill="none" xmlns="http://www.w3.org/2000/svg">
<path d="M11.6953 0H12.3633V0.0117188L12.6328 0.0703125L12.8438 0.140625L13.0664 0.234375L13.3711 0.421875L13.5234 0.550781L13.6992 0.714844L13.8164 0.855469L13.9688 1.06641L14.0625 1.24219L14.168 1.47656L15.7148 1.48828L15.9844 1.51172L16.1367 1.57031L16.2773 1.66406L16.3828 1.76953L16.4766 1.91016L16.5352 2.07422L16.5469 2.15625V2.98828H18.5977L18.9023 3L19.2422 3.03516L19.5234 3.11719L19.7109 3.1875L19.957 3.31641L20.0859 3.39844L20.2852 3.5625L20.4258 3.69141L20.5781 3.86719L20.7188 4.06641L20.8594 4.33594L20.9297 4.52344L21 4.76953L21.0352 5.02734L21.0469 5.15625L21.0586 5.51953L21.0469 21.832L21.0234 22.0898L20.9883 22.2773L20.9062 22.5469L20.8125 22.7578L20.6719 23.0039L20.5547 23.1562L20.4492 23.2734L20.3672 23.3672L20.1914 23.5195L20.0273 23.6367L19.8164 23.7539L19.6172 23.8477L19.2773 23.9531L19.0312 24H4.95703L4.94531 23.9766L4.6875 23.918L4.38281 23.8125L4.07812 23.6484L3.9375 23.543L3.78516 23.4141L3.66797 23.3086L3.52734 23.1445L3.39844 22.9688L3.24609 22.6875L3.17578 22.5234L3.08203 22.1953L3.04688 21.8906L3.03516 21.7266V5.25L3.07031 4.875L3.10547 4.71094L3.19922 4.41797L3.24609 4.3125L3.38672 4.04297L3.50391 3.87891L3.60938 3.76172L3.70312 3.64453H3.72656V3.62109L3.85547 3.51562L4.01953 3.38672L4.21875 3.26953L4.39453 3.17578L4.74609 3.05859L4.93359 3.02344L5.15625 3L5.4375 2.98828H6.82031L7.53516 3V2.23828L7.55859 2.0625L7.61719 1.91016L7.69922 1.78125L7.74609 1.72266L7.83984 1.64062L7.95703 1.57031L8.07422 1.52344L8.17969 1.5L8.32031 1.48828H9.92578L9.96094 1.38281L10.0195 1.25391L10.125 1.05469L10.2773 0.84375L10.4297 0.667969L10.5234 0.574219L10.6523 0.46875L10.8164 0.351562L11.0625 0.210938L11.2969 0.117188L11.6133 0.0351562L11.6953 0.0234375V0ZM11.9414 1.51172L11.7539 1.55859L11.6133 1.64062L11.4727 1.76953L11.3906 1.89844L11.3438 1.99219L11.3086 2.16797L11.2734 2.42578L11.2148 2.57812L11.1328 2.71875L11.0039 2.84766L10.8281 2.94141L10.7109 2.97656L10.6289 2.98828L10.0781 3H9.41016L9.05859 3.01172L9.04688 3.41016V4.48828L9.05859 4.5H15.0352V3H14.707L13.4414 2.98828L13.2539 2.94141L13.125 2.87109L13.0078 2.76562L12.9258 2.67188L12.832 2.48438L12.8086 2.37891L12.7734 2.09766L12.7148 1.92188L12.6328 1.78125L12.5156 1.66406L12.3516 1.57031L12.2578 1.53516L12.1523 1.51172H11.9414ZM5.39062 4.5L5.17969 4.51172L5.03906 4.54688L4.89844 4.61719L4.79297 4.69922L4.71094 4.78125L4.64062 4.88672L4.58203 5.03906L4.55859 5.16797L4.54688 5.60156V21.6328L4.55859 21.8438L4.59375 22.0078L4.67578 22.1719L4.80469 22.3125L4.92188 22.3945L5.05078 22.4531L5.21484 22.4883H18.8789L19.0664 22.4414L19.207 22.3711L19.3359 22.2656L19.4414 22.125L19.5 21.9961L19.5352 21.8203V5.19141L19.5117 5.05078L19.4648 4.92188L19.3828 4.78125L19.2656 4.66406L19.1133 4.57031L18.9727 4.52344L18.7266 4.5H16.5703L16.5469 4.51172L16.5352 5.33203L16.5 5.49609L16.4062 5.68359L16.2773 5.82422L16.1484 5.90625L16.043 5.95312L15.8672 5.98828L15.2344 6L8.19141 5.98828L8.00391 5.94141L7.875 5.87109L7.73438 5.74219L7.66406 5.64844L7.59375 5.50781L7.55859 5.36719L7.54688 5.19141L7.53516 4.5H5.39062Z" fill="#707A8A"/>
<path d="M7.55859 17.9883H16.5117L16.7344 18.0117L16.9102 18.082L17.0391 18.1758L17.1445 18.2812L17.2383 18.4336L17.2852 18.5742L17.2969 18.6328V18.8672L17.25 19.0312L17.168 19.1836L17.0391 19.3242L16.9219 19.4062L16.7812 19.4648L16.6172 19.5H7.45312L7.26562 19.4531L7.125 19.3828L6.98438 19.2539L6.90234 19.1484L6.83203 19.0078L6.79688 18.8789L6.78516 18.7148L6.82031 18.5273L6.87891 18.3867L6.96094 18.2695L7.04297 18.1758L7.16016 18.0938L7.28906 18.0352L7.42969 18L7.55859 17.9883Z" fill="#707A8A"/>
<path d="M7.58203 8.98828H16.4531L16.6523 9L16.7695 9.02344L16.9102 9.08203L17.0391 9.17578L17.1328 9.26953L17.2383 9.43359L17.2852 9.57422L17.2969 9.63281V9.86719L17.25 10.0312L17.168 10.1836L17.0391 10.3242L16.9453 10.3945L16.793 10.4648L16.6172 10.5L15.832 10.5117L7.44141 10.5L7.25391 10.4531L7.125 10.3828L7.00781 10.2773L6.91406 10.1719L6.83203 10.0078L6.79688 9.89062L6.78516 9.71484L6.82031 9.52734L6.87891 9.38672L6.96094 9.26953L7.03125 9.1875L7.16016 9.09375L7.27734 9.03516L7.42969 9L7.58203 8.98828Z" fill="#707A8A"/>
<path d="M7.58203 13.4883H16.4531L16.6523 13.5L16.7695 13.5234L16.9102 13.582L17.0391 13.6758L17.1445 13.7812L17.2383 13.9336L17.2852 14.0742L17.2969 14.1328V14.3672L17.25 14.5312L17.168 14.6836L17.0391 14.8242L16.9219 14.9062L16.7812 14.9648L16.6172 15L15.832 15.0117L7.44141 15L7.26562 14.9531L7.125 14.8828L7.00781 14.7773L6.91406 14.6719L6.83203 14.5078L6.79688 14.3906L6.78516 14.2148L6.82031 14.0273L6.87891 13.8867L6.96094 13.7695L7.04297 13.6758L7.16016 13.5938L7.27734 13.5352L7.42969 13.5L7.58203 13.4883Z" fill="#707A8A"/>
</svg>
