<svg width="24" height="24" viewBox="0 0 24 24" fill="none" xmlns="http://www.w3.org/2000/svg">
<g clip-path="url(#clip0_39_166)">
<path d="M2.39062 0H15.6914L15.7148 0.0234375L16.0898 0.117188L16.3711 0.222656L16.6406 0.363281L16.8047 0.46875L16.9922 0.609375L17.1328 0.738281L17.2148 0.808594L17.2969 0.902344L17.4023 1.01953L17.5312 1.19531L17.6719 1.42969L17.8125 1.72266L17.918 2.03906L17.9766 2.30859L18 2.54297L18.0117 2.98828H21.2578L21.6211 3.01172L21.8789 3.05859L22.1602 3.14062L22.418 3.24609L22.6406 3.36328L22.8047 3.46875L22.9922 3.60938L23.1328 3.73828L23.2148 3.80859L23.2969 3.90234L23.4023 4.01953L23.5312 4.19531L23.6719 4.42969L23.7656 4.61719L23.8594 4.85156L23.9414 5.13281L23.9766 5.29688L24 5.28516V20.7422L23.9766 20.7539L23.9297 21.0234L23.8359 21.3867L23.7188 21.7031L23.625 21.9141L23.543 22.0547L23.4727 22.1836L23.3555 22.3711L23.2148 22.5586L23.1094 22.6875L22.9805 22.8281L22.7461 23.0625L22.6172 23.168L22.418 23.3203L22.2188 23.4492L21.9727 23.5898L21.7266 23.707L21.4102 23.8242L21.1172 23.9062L20.7891 23.9766L20.6719 24H3.26953L3.23438 23.9766L2.88281 23.9062L2.625 23.8359L2.39062 23.7539L2.12109 23.6367L1.875 23.5078L1.65234 23.3672L1.52344 23.2734L1.37109 23.1562L1.24219 23.0391L1.14844 22.957L0.960938 22.7695L0.878906 22.6758L0.738281 22.5L0.597656 22.3008L0.492188 22.125L0.351562 21.8672L0.222656 21.5625L0.140625 21.3164L0.0703125 21.0234L0.0117188 20.7188L0 20.707V2.36719L0.046875 2.17969L0.128906 1.875L0.210938 1.66406L0.328125 1.41797L0.445312 1.23047L0.539062 1.10156L0.65625 0.949219L0.738281 0.867188L0.820312 0.773438L0.972656 0.632812L1.16016 0.492188L1.35938 0.363281L1.62891 0.222656L1.91016 0.117188L2.26172 0.0234375L2.39062 0ZM2.74219 1.5L2.50781 1.52344L2.35547 1.55859L2.14453 1.65234L2.00391 1.74609L1.86328 1.875L1.78125 1.95703L1.66406 2.13281L1.58203 2.30859L1.53516 2.46094L1.51172 2.625L1.5 3.10547V20.1562L1.51172 20.4375L1.55859 20.7539L1.62891 21L1.74609 21.2695L1.85156 21.457L1.94531 21.5859L2.05078 21.7148L2.15625 21.832L2.32031 21.9844L2.53125 22.1367L2.73047 22.2539L2.97656 22.3594L3.22266 22.4297L3.39844 22.4648L3.62109 22.4883H17.2266L17.2031 22.4297L17.1211 22.3125L16.9922 22.1016L16.8516 21.832L16.7695 21.6445L16.6641 21.3516L16.582 21.0234L16.5234 20.6719L16.5 20.2969L16.4883 2.64844L16.4531 2.42578L16.3828 2.22656L16.2773 2.03906L16.1836 1.92188L16.043 1.78125L15.9258 1.69922L15.8086 1.62891L15.6328 1.55859L15.4922 1.52344L15.2578 1.5H2.74219ZM18.0117 4.5L18 5.05078V20.1328L18.0117 20.4375L18.0586 20.7539L18.1172 20.9531L18.1875 21.1406L18.2812 21.3398L18.3867 21.5039L18.4805 21.6328L18.6211 21.7969L18.7266 21.9023L18.8555 22.0078L19.0312 22.1367L19.2188 22.2422L19.418 22.3359L19.6641 22.418L19.8984 22.4648L20.0859 22.4883H20.4023L20.6719 22.4531L20.8711 22.4062L21.1055 22.3242L21.3516 22.207L21.5156 22.1016L21.7148 21.9492L21.7969 21.8672L21.8203 21.8555V21.832L21.8555 21.8203L21.9375 21.7266L22.0312 21.6211L22.1484 21.4453L22.2539 21.2695L22.3711 20.9883L22.4414 20.7422L22.4766 20.5195L22.4883 20.3906V5.64844L22.4648 5.47266L22.3828 5.22656L22.2773 5.03906L22.1836 4.92188L22.043 4.78125L21.9258 4.69922L21.8086 4.62891L21.6328 4.55859L21.4922 4.52344L21.2578 4.5H18.0117Z" fill="#707A8A"/>
<path d="M3.75 2.98828H8.22656L8.4375 3.01172L8.56641 3.05859L8.68359 3.12891L8.80078 3.23438L8.88281 3.32812L8.97656 3.51562L9 3.63281L9.01172 3.91406V7.69922L9 8.35547L8.96484 8.49609L8.87109 8.68359L8.76562 8.80078L8.64844 8.89453L8.49609 8.96484L8.32031 9H3.64453L3.49219 8.96484L3.35156 8.89453L3.23438 8.80078L3.15234 8.71875L3.05859 8.56641L3.01172 8.4375L3 8.37891L2.98828 8.21484V3.71484L3.01172 3.55078L3.07031 3.41016L3.14062 3.29297L3.25781 3.16406L3.375 3.08203L3.55078 3.01172L3.75 2.98828ZM4.51172 4.5L4.5 5.05078V7.48828L4.57031 7.5H7.47656L7.48828 7.48828V4.5H4.51172Z" fill="#707A8A"/>
<path d="M3.66797 10.9922H14.332L14.4961 11.0273L14.6602 11.1094L14.8125 11.2383L14.918 11.3906L14.9766 11.5312L15 11.6133V11.8828L14.9531 12.0352L14.8828 12.1641L14.8008 12.2695L14.6953 12.3633L14.5664 12.4336L14.4375 12.4805L14.3203 12.5039H3.65625L3.50391 12.4688L3.33984 12.3867L3.22266 12.293L3.12891 12.1875L3.04688 12.0469L3 11.8945L2.98828 11.7188L3.01172 11.5547L3.07031 11.4023L3.16406 11.2617L3.28125 11.1445L3.43359 11.0508L3.57422 11.0039L3.66797 10.9922Z" fill="#707A8A"/>
<path d="M3.66797 14.7422H14.332L14.4961 14.7773L14.6602 14.8594L14.8125 14.9883L14.918 15.1406L14.9766 15.2812L15 15.3633V15.6328L14.9531 15.7852L14.8828 15.9141L14.8008 16.0195L14.6953 16.1133L14.5664 16.1836L14.4375 16.2305L14.3203 16.2539H3.65625L3.50391 16.2188L3.33984 16.1367L3.22266 16.043L3.12891 15.9375L3.04688 15.7969L3 15.6445L2.98828 15.4688L3.01172 15.3047L3.07031 15.1523L3.16406 15.0117L3.28125 14.8945L3.43359 14.8008L3.57422 14.7539L3.66797 14.7422Z" fill="#707A8A"/>
<path d="M3.66797 18.4922H14.332L14.4961 18.5273L14.6602 18.6094L14.8125 18.7383L14.918 18.8906L14.9766 19.0312L15 19.1133V19.3828L14.9531 19.5352L14.8828 19.6641L14.8008 19.7695L14.6953 19.8633L14.5664 19.9336L14.4375 19.9805L14.3203 20.0039H3.65625L3.50391 19.9688L3.33984 19.8867L3.22266 19.793L3.12891 19.6875L3.04688 19.5469L3 19.3945L2.98828 19.2188L3.01172 19.0547L3.07031 18.9023L3.16406 18.7617L3.28125 18.6445L3.43359 18.5508L3.57422 18.5039L3.66797 18.4922Z" fill="#707A8A"/>
<path d="M11.6133 3.99609H14.3672L14.5078 4.03125L14.6484 4.10156L14.7656 4.19531L14.8711 4.3125L14.9414 4.44141L14.9883 4.55859L15 4.61719V4.875L14.9531 5.03906L14.8828 5.16797L14.7773 5.29688L14.6367 5.40234L14.4727 5.47266L14.3672 5.49609L14.2617 5.50781H11.707L11.5195 5.47266L11.332 5.37891L11.2148 5.28516L11.1328 5.19141L11.0508 5.05078L11.0039 4.91016L10.9922 4.85156V4.65234L11.0273 4.5L11.1094 4.33594L11.2031 4.21875L11.3086 4.125L11.4258 4.05469L11.6133 3.99609Z" fill="#707A8A"/>
<path d="M11.6133 6.99609H14.3672L14.5078 7.03125L14.6484 7.10156L14.7656 7.19531L14.8711 7.3125L14.9414 7.44141L14.9883 7.55859L15 7.61719V7.875L14.9531 8.03906L14.8828 8.16797L14.7773 8.29688L14.6367 8.40234L14.4727 8.47266L14.3672 8.49609L14.2617 8.50781H11.7188L11.5547 8.48438L11.4141 8.42578L11.2969 8.35547L11.168 8.23828L11.0625 8.07422L11.0039 7.91016L10.9922 7.85156V7.65234L11.0273 7.5L11.1094 7.33594L11.2031 7.21875L11.3086 7.125L11.4258 7.05469L11.6133 6.99609Z" fill="#707A8A"/>
</g>
<defs>
<clipPath id="clip0_39_166">
<rect width="24" height="24" fill="white"/>
</clipPath>
</defs>
</svg>
