<svg width="24" height="24" viewBox="0 0 24 24" fill="none" xmlns="http://www.w3.org/2000/svg">
<g clip-path="url(#clip0_39_156)">
<path d="M14.831 17C14.575 17 14.319 16.902 14.124 16.707C13.733 16.316 13.733 15.684 14.124 15.293L16.707 12.71C16.895 12.521 17 12.27 17 12.002C17 11.734 16.896 11.484 16.707 11.295L14.124 8.711C13.733 8.32 13.733 7.687 14.124 7.297C14.515 6.906 15.147 6.906 15.538 7.297L18.121 9.88C18.687 10.446 19 11.2 19 12.001C19 12.802 18.688 13.556 18.121 14.123L15.538 16.706C15.343 16.901 15.087 17 14.831 17ZM9.876 16.702C10.267 16.311 10.267 15.679 9.876 15.288L7.293 12.705C7.104 12.516 7 12.265 7 11.997C7 11.729 7.104 11.479 7.293 11.29L9.876 8.707C10.267 8.316 10.267 7.684 9.876 7.293C9.485 6.902 8.853 6.902 8.462 7.293L5.879 9.876C5.312 10.443 5 11.196 5 11.998C5 12.8 5.312 13.553 5.879 14.12L8.462 16.703C8.657 16.898 8.913 16.996 9.169 16.996C9.425 16.996 9.681 16.897 9.876 16.702ZM24 19V5C24 2.243 21.757 0 19 0H5C2.243 0 0 2.243 0 5V19C0 21.757 2.243 24 5 24H19C21.757 24 24 21.757 24 19ZM19 2C20.654 2 22 3.346 22 5V19C22 20.654 20.654 22 19 22H5C3.346 22 2 20.654 2 19V5C2 3.346 3.346 2 5 2H19Z" fill="#707A8A"/>
</g>
<defs>
<clipPath id="clip0_39_156">
<rect width="24" height="24" fill="white"/>
</clipPath>
</defs>
</svg>
