<svg width="24" height="24" viewBox="0 0 24 24" fill="none" xmlns="http://www.w3.org/2000/svg">
<path d="M11.5664 5.19141H12.4453L13.1016 5.22656L13.5234 5.26172L14.1094 5.33203L14.625 5.41406L15.0586 5.49609L15.5625 5.61328L16.0898 5.75391L16.4766 5.87109L16.957 6.03516L17.4492 6.22266L17.8945 6.41016L18.3047 6.59766L18.5039 6.69141L18.7266 6.80859L19.043 6.97266L19.3125 7.125L19.6523 7.32422L19.9219 7.5L20.1094 7.61719L20.2969 7.74609L20.5312 7.91016L20.7422 8.0625L20.9883 8.25L21.1523 8.37891L21.3398 8.53125L21.4922 8.66016L21.6211 8.76562L21.75 8.88281L21.8438 8.96484L22.125 9.22266L22.2188 9.30469L22.5938 9.67969L22.6758 9.77344L22.7812 9.87891L22.8633 9.97266L23.0273 10.1484L23.1328 10.2773L23.25 10.4062L23.3555 10.5352L23.5195 10.7344L23.6367 10.8867L23.7539 11.0625L23.8477 11.25L23.9297 11.4609L23.9883 11.6484H24V12.3281L23.9766 12.3516L23.9297 12.5273L23.8477 12.75L23.7539 12.9375L23.6602 13.0781L23.543 13.2305L23.332 13.4883L23.2031 13.6406L23.0625 13.8047L22.9336 13.9453L22.9219 13.9688H22.8984L22.875 14.0156L22.7578 14.1328L22.6758 14.2266L22.582 14.3203L22.5703 14.3438H22.5469V14.3672H22.5234V14.3906H22.5V14.4141H22.4766V14.4375H22.4531V14.4609H22.4297V14.4844H22.4062V14.5078H22.3828V14.5312H22.3594V14.5547H22.3359V14.5781H22.3125V14.6016H22.2891V14.625L22.1953 14.707L22.0898 14.8125L21.9961 14.8945L21.8086 15.0703L21.7148 15.1523L21.5508 15.293L21.3984 15.4219L21.2695 15.5273L20.9414 15.7852L20.7539 15.9258L20.543 16.0781L20.3789 16.1953L20.0977 16.3828L19.8281 16.5586L19.6172 16.6875L19.3242 16.8633L18.9844 17.0508L18.5859 17.2617L18.2227 17.4375L17.8828 17.5898L17.4609 17.7656L17.0039 17.9414L16.418 18.1406L15.8086 18.3164L15.2344 18.457L14.707 18.5625L14.1328 18.6562L13.6641 18.7148L13.1719 18.7617L12.5859 18.7969L12.2109 18.8086H11.7891L11.1328 18.7852L10.793 18.7617L10.3008 18.7148L9.85547 18.6562L9.35156 18.5742L8.87109 18.4805L8.46094 18.3867L7.98047 18.2578L7.55859 18.1289L7.13672 17.9883L6.80859 17.8711L6.42188 17.7188L6.11719 17.5898L5.73047 17.4141L5.32031 17.2148L5.09766 17.0977L4.81641 16.9453L4.53516 16.7812L4.30078 16.6406L4.07812 16.5L3.62109 16.1953L3.29297 15.9609L3.04688 15.7734L2.71875 15.5156L2.56641 15.3867L2.4375 15.2812L2.30859 15.1641L2.21484 15.082L1.98047 14.8711L1.89844 14.7891L1.80469 14.707L1.64062 14.543L1.54688 14.4609V14.4375H1.52344L1.44141 14.3438L1.28906 14.1914L1.20703 14.0977L1.11328 14.0039L1.03125 13.9102L0.902344 13.7695L0.796875 13.6406L0.644531 13.4648L0.550781 13.3477L0.398438 13.1602L0.269531 12.9727L0.164062 12.7852L0.0820312 12.5859L0.0117188 12.3164L0 12.3047V11.707L0.0703125 11.4609L0.140625 11.2617L0.257812 11.0391L0.386719 10.8516L0.515625 10.6992L0.632812 10.5469L0.738281 10.4297L0.832031 10.3125L0.9375 10.1953L1.01953 10.1016L1.16016 9.94922L1.24219 9.85547L1.32422 9.77344L1.40625 9.67969L1.85156 9.23438L1.94531 9.15234L2.01562 9.08203H2.03906V9.05859L2.16797 8.95312L2.25 8.87109L2.37891 8.76562L2.49609 8.66016L2.625 8.55469L2.76562 8.4375L2.92969 8.30859L3.14062 8.14453L3.36328 7.98047L3.5625 7.83984L3.67969 7.75781L4.06641 7.5L4.34766 7.32422L4.66406 7.13672L5.08594 6.90234L5.40234 6.73828L5.67188 6.60938L5.85938 6.51562L6.31641 6.31641L6.63281 6.1875L7.07812 6.02344L7.48828 5.88281L7.91016 5.75391L8.4375 5.61328L8.89453 5.50781L9.43359 5.40234L9.97266 5.32031L10.4531 5.26172L11.0391 5.21484L11.5664 5.19141ZM11.7422 6.17578L11.3203 6.21094L10.9922 6.25781L10.6523 6.32812L10.3008 6.42188L9.96094 6.53906L9.70312 6.64453L9.39844 6.78516L9.17578 6.90234L8.91797 7.05469L8.70703 7.19531L8.49609 7.34766L8.32031 7.48828L8.22656 7.57031L8.07422 7.69922L7.6875 8.08594V8.10938H7.66406L7.55859 8.23828L7.41797 8.40234L7.25391 8.625L7.125 8.8125L6.98438 9.03516L6.91406 9.16406L6.77344 9.43359L6.69141 9.60938L6.58594 9.84375L6.44531 10.2422L6.35156 10.5703L6.26953 10.957L6.22266 11.25L6.1875 11.5781L6.17578 11.8594V12.1523L6.19922 12.5391L6.24609 12.9141L6.30469 13.2305L6.39844 13.6055L6.53906 14.0273L6.63281 14.2617L6.73828 14.4961L6.83203 14.6836L6.9375 14.8828L7.07812 15.1172L7.25391 15.375L7.35938 15.5156L7.48828 15.6797L7.64062 15.8555L7.74609 15.9727L8.08594 16.3125L8.21484 16.418L8.33203 16.5234L8.48438 16.6406L8.66016 16.7695L8.83594 16.8867L9.08203 17.0391L9.36328 17.1914L9.63281 17.3203L9.94922 17.4492L10.3711 17.5898L10.6875 17.6719L10.9688 17.7305L11.2969 17.7773L11.6719 17.8125H12.3281L12.7148 17.7773L13.0898 17.7188L13.4062 17.6484L13.6992 17.5664L14.0508 17.4492L14.332 17.332L14.625 17.1914L14.8711 17.0625L15.1055 16.9219L15.2812 16.8047L15.4922 16.6523L15.7031 16.4883L15.8203 16.3828L15.9492 16.2773L16.3125 15.9141L16.418 15.7852L16.5586 15.6211L16.6758 15.4688L16.8164 15.2695L16.9453 15.0703L17.0625 14.8711L17.1797 14.6602L17.3438 14.3203L17.4844 13.957L17.5781 13.6758L17.6719 13.3125L17.7305 13.0312L17.7773 12.7148L17.8125 12.3398V11.6602L17.7773 11.2734L17.7188 10.8984L17.6133 10.4414L17.5078 10.1016L17.3672 9.73828L17.2266 9.43359L17.0625 9.11719L16.9219 8.88281L16.7461 8.625L16.6055 8.4375L16.4531 8.25L16.3125 8.08594L16.2188 7.99219L16.207 7.96875H16.1836L16.1602 7.92188L16.0195 7.78125L15.9258 7.69922L15.7734 7.55859L15.6094 7.42969L15.457 7.3125L15.2578 7.17188L15.0586 7.04297L14.7773 6.87891L14.5078 6.73828L14.2148 6.60938L13.9453 6.50391L13.5703 6.38672L13.2422 6.30469L12.8555 6.23438L12.4219 6.1875L12.2227 6.17578H11.7422ZM7.38281 6.97266L7.07812 7.07812L6.62109 7.26562L6.19922 7.45312L5.8125 7.64062L5.58984 7.75781L5.26172 7.93359L4.94531 8.12109L4.73438 8.25L4.47656 8.41406L4.18359 8.61328L4.01953 8.73047L3.80859 8.88281L3.50391 9.11719L3.31641 9.26953L3.1875 9.375L3.01172 9.52734L2.91797 9.60938L2.80078 9.71484L2.66016 9.84375L2.625 9.86719V9.89062L2.57812 9.91406L1.96875 10.5234L1.88672 10.6172L1.73438 10.7812V10.8047H1.71094L1.60547 10.9336L1.5 11.0508L1.39453 11.1797L1.23047 11.3789L1.11328 11.543L1.03125 11.707L0.984375 11.9062V12.1055L1.04297 12.3281L1.14844 12.5156L1.30078 12.7031L1.40625 12.832L1.54688 12.9961L1.65234 13.125L1.81641 13.3008L1.89844 13.3945L2.07422 13.582L2.58984 14.0977L2.68359 14.1797L2.84766 14.332L2.94141 14.4141L3.26953 14.6953L3.43359 14.8242L3.5625 14.9297L3.9375 15.2109L4.17188 15.375L4.62891 15.6797L4.875 15.832L5.19141 16.0195L5.53125 16.207L5.87109 16.3828L6.28125 16.582L6.71484 16.7695L7.03125 16.8984L7.28906 16.9922L7.34766 17.0156H7.38281L7.35938 16.9688L7.18359 16.8047L7.125 16.7344H7.10156L7.07812 16.6875L6.99609 16.6055L6.91406 16.5117L6.80859 16.3945L6.57422 16.1016L6.43359 15.9023L6.28125 15.6797L6.12891 15.4336L5.95312 15.1172L5.83594 14.8711L5.75391 14.6953L5.625 14.3789L5.48438 13.957L5.40234 13.6641L5.33203 13.3477L5.27344 13.0195L5.22656 12.6328L5.20312 12.3281V11.6719L5.23828 11.2383L5.29688 10.8281L5.36719 10.4766L5.46094 10.1133L5.60156 9.69141L5.70703 9.41016L5.85938 9.07031L5.98828 8.8125L6.14062 8.54297L6.31641 8.26172L6.44531 8.07422L6.57422 7.89844L6.69141 7.74609L6.94922 7.44141L7.11328 7.26562L7.40625 6.97266H7.38281ZM16.6289 6.98438L16.6406 7.03125L16.7344 7.11328L16.9102 7.28906L16.9922 7.38281L17.0742 7.46484L17.1797 7.59375L17.3203 7.75781L17.4609 7.94531L17.6016 8.14453L17.7422 8.35547L17.918 8.64844L18.0938 8.97656L18.2461 9.30469L18.3984 9.69141L18.5391 10.125L18.6445 10.5469L18.7148 10.9219L18.7734 11.3906L18.7969 11.8359V12.1523L18.7734 12.6211L18.7266 13.0078L18.6445 13.4531L18.5391 13.875L18.4453 14.168L18.3281 14.4961L18.1875 14.8242L18.0586 15.0938L17.918 15.3516L17.8008 15.5508L17.6953 15.7148L17.6016 15.8555L17.4609 16.0547L17.3086 16.2422L17.2266 16.3477L17.0977 16.5L16.9688 16.6406L16.8984 16.7109V16.7344H16.875L16.8047 16.8164L16.7812 16.8281V16.8516L16.7344 16.875L16.6172 16.9922L16.5938 17.0039L16.6055 17.0273L16.957 16.8984L17.4141 16.7109L17.7305 16.5703L18.0703 16.4062L18.2578 16.3125L18.5977 16.1367L18.8789 15.9727L19.125 15.832L19.3828 15.668L19.582 15.5391L19.8047 15.3867L20.0039 15.2461L20.2266 15.082L20.4727 14.8945L20.6602 14.7422L20.7891 14.6367L20.9531 14.4961L21.082 14.3906L21.1641 14.3086L21.2578 14.2266L21.3984 14.0977L21.5508 13.957L21.9844 13.5234L22.0664 13.4297L22.125 13.3711V13.3477H22.1484L22.2305 13.2539L22.3359 13.1367V13.1133H22.3594L22.4648 12.9844L22.6055 12.8203L22.8633 12.4922L22.9453 12.3516L23.0039 12.1523L23.0156 12.082V11.9297L22.9922 11.7891L22.9336 11.625L22.8516 11.4844L22.7227 11.3203L22.5938 11.168L22.4883 11.0391L22.3828 10.9219L22.2773 10.793L22.1133 10.6172L22.1016 10.5938H22.0781L22.0547 10.5469L21.8555 10.3477L21.7734 10.2539L21.5977 10.0781H21.5742L21.5625 10.043L21.4688 9.96094L21.3281 9.82031L21.2344 9.73828L21.0938 9.60938L20.9648 9.50391L20.8477 9.39844L20.7188 9.29297L20.5312 9.14062L20.3789 9.02344L20.2383 8.91797L20.0156 8.75391L19.8047 8.60156L19.3594 8.30859L19.1133 8.15625L18.8555 8.00391L18.668 7.89844L18.4102 7.75781L18.0469 7.57031L17.7773 7.44141L17.4375 7.28906L17.0039 7.11328L16.6523 6.98438H16.6289Z" fill="#2B2F33"/>
<path d="M11.7188 9.50391H12.1875L12.4336 9.53906L12.668 9.59766L12.9023 9.67969L13.1719 9.80859L13.3711 9.9375L13.5586 10.0781L13.7461 10.2539L13.875 10.3945L14.0156 10.582L14.1094 10.7344L14.2031 10.8984L14.3203 11.1797L14.3906 11.4258L14.4375 11.707L14.4492 11.8477V12.1523L14.4258 12.3867L14.3672 12.6562L14.2734 12.9375L14.1914 13.1133L14.0625 13.3477L13.9102 13.5586L13.793 13.6875L13.7109 13.7812L13.5586 13.9219L13.3359 14.0859L13.0898 14.2266L12.9141 14.3086L12.5977 14.4141L12.3164 14.4727L12.082 14.4961H11.8125L11.5078 14.4609L11.2617 14.4023L11.0508 14.332L10.8164 14.2266L10.6055 14.1094L10.3828 13.9453L10.2188 13.793L10.0547 13.6289L9.92578 13.4648L9.80859 13.2891L9.71484 13.125L9.59766 12.8555L9.52734 12.6211L9.46875 12.3281L9.44531 12.0352L9.45703 11.7656L9.50391 11.4727L9.58594 11.1797L9.66797 10.9688L9.78516 10.7461L9.91406 10.5469L10.0312 10.3945L10.1719 10.2422L10.2891 10.125L10.418 10.0195L10.582 9.90234L10.7812 9.78516L11.0039 9.67969L11.2383 9.59766L11.5312 9.52734L11.7188 9.50391ZM11.8125 10.4883L11.6016 10.5234L11.4141 10.582L11.2734 10.6406L11.0977 10.7461L10.9805 10.8398L10.8398 10.9688L10.7109 11.1328L10.6406 11.2383L10.5469 11.4375L10.4883 11.6133L10.4531 11.7773L10.4414 11.8828V12.1289L10.4648 12.293L10.5352 12.5391L10.6406 12.7617L10.7578 12.9258L10.8867 13.0781L11.0391 13.207L11.2148 13.3242L11.4258 13.418L11.5781 13.4648L11.7656 13.5L12.0117 13.5117L12.2227 13.4883L12.4453 13.4297L12.6328 13.3477L12.7617 13.2773L12.9492 13.1367L13.125 12.9609L13.2539 12.7734L13.3477 12.5859L13.4062 12.4219L13.4414 12.2812L13.4648 12.0469V11.9062L13.4297 11.6719L13.3711 11.4727L13.2891 11.2852L13.1836 11.1094L13.0312 10.9336L12.8906 10.8047L12.7148 10.6875L12.5273 10.5938L12.3516 10.5352L12.1758 10.5L12.082 10.4883H11.8125Z" fill="#2B2F33"/>
</svg>
